<svg preserveAspectRatio="none" width="1057" height="1323" viewBox="0 0 1057 1323" fill="none" xmlns="http://www.w3.org/2000/svg">
<g filter="url(#filter0_f_14_9)">
<path vector-effect="non-scaling-stroke" d="M150.22 713.44C150.901 457.305 474.158 -124.33 469.114 302.818C464.071 729.966 514.826 255.865 793.028 453.622C1071.23 651.38 779.39 1173.66 534.528 1173.01C289.665 1172.36 149.538 969.574 150.22 713.44Z" fill="#0B789A" fill-opacity="0.39"/>
<path vector-effect="non-scaling-stroke" d="M150.72 713.441C150.89 649.492 171.199 565.178 201.514 481.326C231.826 397.481 272.124 314.148 312.234 252.17C332.29 221.179 352.288 195.545 370.954 177.857C389.645 160.146 406.902 150.498 421.485 151.255C435.982 152.008 448.083 163.079 456.415 187.48C464.745 211.874 469.245 249.437 468.614 302.812C467.984 356.207 468.225 395.532 469.674 423.851C471.122 452.143 473.778 469.527 478.02 478.979C480.145 483.716 482.706 486.547 485.796 487.707C488.885 488.867 492.373 488.306 496.238 486.558C500.104 484.809 504.421 481.838 509.218 478.061C513.68 474.547 518.584 470.315 523.951 465.681C524.358 465.33 524.768 464.976 525.18 464.62C548.601 444.411 580.785 417.118 624.451 407.186C668.086 397.26 723.278 404.655 792.738 454.03C931.542 552.697 928.229 732.383 859.47 887.515C825.099 965.061 774.397 1036.41 717.006 1088.32C659.608 1140.24 595.571 1172.67 534.529 1172.51C412.25 1172.18 316.147 1121.39 250.687 1038.72C185.218 956.033 150.379 841.422 150.72 713.441Z" stroke="black"/>
</g>
<defs>
<filter id="filter0_f_14_9" x="0.217407" y="0.713501" width="1056.07" height="1322.29" filterUnits="userSpaceOnUse" color-interpolation-filters="sRGB">
<feFlood flood-opacity="0" result="BackgroundImageFix"/>
<feBlend mode="normal" in="SourceGraphic" in2="BackgroundImageFix" result="shape"/>
<feGaussianBlur stdDeviation="75" result="effect1_foregroundBlur_14_9"/>
</filter>
</defs>
</svg>
